<svg xmlns="http://www.w3.org/2000/svg" viewBox="0 0 64 64" width="512" height="512">
  <!-- Background circle -->
  <circle cx="32" cy="32" r="30" fill="#1e1b4b"/>
  <!-- Garden/grass -->
  <ellipse cx="32" cy="52" rx="24" ry="6" fill="#22c55e" opacity="0.8"/>
  <!-- House body -->
  <rect x="18" y="28" width="28" height="20" rx="2" fill="#fbbf24"/>
  <!-- Roof -->
  <polygon points="14,30 32,14 50,30" fill="#dc2626"/>
  <!-- Door -->
  <rect x="28" y="36" width="8" height="12" rx="1" fill="#1e1b4b"/>
  <!-- Door knob -->
  <circle cx="34" cy="42" r="1" fill="#fbbf24"/>
  <!-- Left window -->
  <rect x="21" y="32" width="5" height="5" rx="0.5" fill="#93c5fd"/>
  <!-- Right window -->
  <rect x="38" y="32" width="5" height="5" rx="0.5" fill="#93c5fd"/>
  <!-- Left tree -->
  <circle cx="10" cy="38" r="6" fill="#16a34a"/>
  <rect x="9" y="42" width="2" height="8" fill="#92400e"/>
  <!-- Right tree -->
  <circle cx="54" cy="36" r="5" fill="#16a34a"/>
  <rect x="53" y="39" width="2" height="9" fill="#92400e"/>
  <!-- Small bush left -->
  <ellipse cx="16" cy="47" rx="4" ry="3" fill="#15803d"/>
  <!-- Small bush right -->
  <ellipse cx="48" cy="47" rx="4" ry="3" fill="#15803d"/>
</svg>
