<svg width="197" height="18" viewBox="0 0 197 18" fill="none" xmlns="http://www.w3.org/2000/svg">
<path d="M0.00400178 1.33398H4.52202C6.08672 1.33398 6.78303 1.48828 7.3913 1.7522C8.82394 2.38968 9.69633 3.86766 9.69633 5.74355C9.69633 7.8387 8.52381 9.44661 6.80704 9.93386V9.97852C6.80704 9.97852 6.95911 10.1775 7.19922 10.5957L10.5247 16.8365H8.80793L5.35439 10.3115H1.50067V16.8365H0V1.33398H0.00400178ZM5.13429 8.93906C6.98312 8.93906 8.15564 7.72501 8.15564 5.78821C8.15564 4.5092 7.65542 3.56313 6.76302 3.07588C6.30682 2.83226 5.76257 2.70233 4.59005 2.70233H1.50467V8.94312H5.13429V8.93906Z" fill="white"/>
<path d="M12.9616 1.33398H21.5655V2.70233H14.4583V8.34625H20.2609V9.71459H14.4583V15.4681H21.9537V16.8365H12.9576V1.33398H12.9616Z" fill="white"/>
<path d="M33.6429 11.895H27.4921L25.7554 16.8324H24.1707L29.7732 1.33398H31.3819L36.9884 16.8324H35.4037L33.6429 11.895ZM30.5575 2.94189C30.5575 2.94189 30.2334 4.22091 29.9692 4.94772L27.9283 10.5713H33.1867L31.1858 4.94772C30.9257 4.22091 30.5975 2.94189 30.5975 2.94189H30.5535H30.5575Z" fill="white"/>
<path d="M39.3855 1.33398H40.8862V15.4681H47.9693V16.8365H39.3855V1.33398Z" fill="white"/>
<path d="M51.9711 2.70233H46.4727V1.33398H58.9462V2.70233H53.4718V16.8365H51.9711V2.70233Z" fill="white"/>
<path d="M66.2777 10.1731L61.1274 1.32959H62.8442L66.0817 6.95321C66.5379 7.74904 67.0141 8.80474 67.0141 8.80474H67.0581C67.0581 8.80474 67.5143 7.76934 67.9905 6.95321L71.228 1.32959H72.9247L67.7944 10.1731V16.8321H66.2737V10.1731H66.2777Z" fill="white"/>
<path d="M131.671 1.06982C135.213 1.06982 137.105 2.87669 137.105 2.87669L136.301 4.02172C136.301 4.02172 134.52 2.47877 131.739 2.47877C128.045 2.47877 125.544 5.3657 125.544 9.04846C125.544 12.7312 128.129 15.6872 131.607 15.6872C134.584 15.6872 136.409 13.4174 136.409 13.4174V10.7944H133.8V9.42607H137.842V16.8363H136.449V15.6669C136.449 15.338 136.473 15.005 136.473 15.005H136.429C136.429 15.005 134.668 17.1002 131.455 17.1002C127.281 17.1002 123.979 13.6813 123.979 9.07282C123.979 4.4643 127.281 1.06982 131.671 1.06982Z" fill="white"/>
<path d="M141.035 1.33398H145.553C147.118 1.33398 147.814 1.48828 148.422 1.7522C149.855 2.38968 150.727 3.86766 150.727 5.74355C150.727 7.8387 149.555 9.44661 147.838 9.93386V9.97852C147.838 9.97852 147.99 10.1775 148.23 10.5957L151.556 16.8365H149.839L146.386 10.3115H142.54V16.8365H141.039V1.33398H141.035ZM146.165 8.93906C148.014 8.93906 149.187 7.72501 149.187 5.78821C149.187 4.5092 148.687 3.56313 147.794 3.07588C147.338 2.83226 146.794 2.70233 145.621 2.70233H142.536V8.94312H146.165V8.93906Z" fill="white"/>
<path d="M160.98 1.06982C165.306 1.06982 168.76 4.53332 168.76 8.98349C168.76 13.4337 165.306 17.0961 160.98 17.0961C156.654 17.0961 153.201 13.523 153.201 8.98349C153.201 4.44399 156.654 1.06982 160.98 1.06982ZM160.98 15.6872C164.414 15.6872 167.195 12.7759 167.195 8.98349C167.195 5.1911 164.414 2.47877 160.98 2.47877C157.547 2.47877 154.765 5.28043 154.765 8.98349C154.765 12.6866 157.526 15.6872 160.98 15.6872Z" fill="white"/>
<path d="M171.517 1.33398H173.038V11.4118C173.038 14.0795 174.73 15.6915 177.363 15.6915C179.997 15.6915 181.709 14.0836 181.709 11.3712V1.33398H183.21V11.4321C183.21 14.8713 180.841 17.1004 177.387 17.1004C173.934 17.1004 171.521 14.8753 171.521 11.4321V1.33398H171.517Z" fill="white"/>
<path d="M187.008 1.33398H192.286C195.023 1.33398 197 3.14085 197 6.00747C197 8.8741 195.023 10.7459 192.286 10.7459H188.504V16.8324H187.004V1.33398H187.008ZM192.094 9.38165C194.135 9.38165 195.463 8.12293 195.463 6.00747C195.463 3.89202 194.139 2.69827 192.118 2.69827H188.512V9.37758H192.098L192.094 9.38165Z" fill="white"/>
<path d="M82.3566 0.75293C77.4504 0.75293 73.8608 4.32606 73.8608 8.9021C73.8608 13.4781 77.4504 17.2543 82.3566 17.2543C87.2628 17.2543 90.8524 13.5918 90.8524 8.9021C90.8524 4.21237 87.2628 0.75293 82.3566 0.75293ZM82.3566 13.6812C79.9275 13.6812 77.9707 11.6266 77.9707 8.9021C77.9707 6.17759 79.9235 4.32606 82.3566 4.32606C84.7897 4.32606 86.7386 6.29128 86.7386 8.9021C86.7386 11.5129 84.7857 13.6812 82.3566 13.6812Z" fill="#C6AA5F"/>
<path d="M120.854 4.46402V1.16699H110.517V16.8969H120.854V13.5958H114.431V10.6236H119.313V7.32658H114.431V4.46402H120.854Z" fill="#C6AA5F"/>
<path d="M103.038 11.2446L97.2633 1.21143H93.4536V16.9454H97.1553V7.0543L102.882 16.9454H106.82V5.20277L103.038 8.23993C103.082 9.18194 103.038 11.2446 103.038 11.2446Z" fill="#C6AA5F"/>
<path d="M103.082 4.2408L106.82 1.30109V1.21582H103.082V4.2408Z" fill="#C6AA5F"/>
</svg>
